<svg width="24" height="24" viewBox="0 0 24 24" fill="none" xmlns="http://www.w3.org/2000/svg">
  <path d="M22 16.92v3a2 2 0 0 1-2.18 2 19.79 19.79 0 0 0-8.63-3.07 19.5 19.5 0 0 0-4 0 19.79 19.79 0 0 0-8.63 3.07A2 2 0 0 1 2 18.9v-3a2 2 0 0 1 1.72-1.97 19.79 19.79 0 0 1 8.63-3.07 19.5 19.5 0 0 1 4 0 19.79 19.79 0 0 1 8.63 3.07A2 2 0 0 1 22 16.92Z" stroke="#2563eb" stroke-width="2" stroke-linecap="round" stroke-linejoin="round"/>
  <path d="M13 2a2 2 0 0 0-2 2v1a2 2 0 0 0 2 2h2a2 2 0 0 0 2-2V4a2 2 0 0 0-2-2h-2Z" stroke="#2563eb" stroke-width="2" stroke-linecap="round" stroke-linejoin="round"/>
</svg>
